<?xml version="1.0" encoding="utf-8"?>
<!-- Generator: Adobe Illustrator 26.3.1, SVG Export Plug-In . SVG Version: 6.00 Build 0)  -->
<svg version="1.1" id="Camada_1" xmlns="http://www.w3.org/2000/svg" xmlns:xlink="http://www.w3.org/1999/xlink" x="0px" y="0px"
	 viewBox="0 0 148 54" style="enable-background:new 0 0 148 54;" xml:space="preserve">
<style type="text/css">
	.st0{fill:#343A40;}
</style>
<g>
	<g>
		<path class="st0" d="M8.4,10.1c0.4-0.7,0.8-1.2,1.2-1.5C10,8.3,10.5,8.1,11,8.1c0.3,0,0.6,0.1,0.8,0.4c0.2,0.2,0.4,0.5,0.4,0.8
			c0,0.6-0.2,0.8-0.7,0.8c-0.2,0-0.4-0.2-0.6-0.5C10.7,9.2,10.4,9,10.1,9C9.8,9,9.5,9.2,9.2,9.5s-0.5,0.7-0.6,1.1
			c-0.1,0.4-0.2,1.2-0.2,2.5c0,1.2,0,1.8,0.1,2c0.1,0.2,0.3,0.3,0.7,0.3c0.1,0,0.2,0.1,0.2,0.1c0,0.1-0.1,0.2-0.4,0.2H6.2
			c-0.2,0-0.3-0.1-0.3-0.2c0-0.1,0.1-0.1,0.4-0.2c0.4,0,0.6-0.1,0.7-0.3c0.1-0.2,0.1-1,0.1-2.3c0-1.9,0-3.1-0.1-3.5
			C6.9,8.9,6.6,8.7,6.1,8.6c-0.2,0-0.3-0.1-0.3-0.2c0-0.1,0-0.1,0.1-0.1c0,0,0.3-0.1,0.8-0.1l1.6-0.1C8.3,8.5,8.4,9.1,8.4,10.1z"/>
		<path class="st0" d="M14.6,11.6c0,0.3,0,0.5,0,0.7c0,0.8,0.2,1.6,0.7,2.1c0.5,0.6,1.1,0.9,1.8,0.9c0.7,0,1.4-0.3,2-0.9
			c0.2-0.2,0.3-0.2,0.3-0.2c0.1,0,0.1,0.1,0.2,0.2c-0.2,0.4-0.6,0.8-1.2,1.1c-0.5,0.3-1.2,0.4-1.8,0.4c-1,0-1.8-0.4-2.5-1.1
			c-0.7-0.7-1-1.6-1-2.7c0-1.2,0.4-2.1,1.1-2.9c0.8-0.8,1.6-1.2,2.4-1.2c0.8,0,1.5,0.3,2.2,0.9c0.6,0.6,1,1.3,1,2.1
			c0,0.1,0,0.2-0.1,0.3c0,0.1-0.3,0.1-0.7,0.1L14.6,11.6z M14.6,11.1c0.8,0,1.5,0.1,2.3,0.1l0.5,0c0.4,0,0.6-0.1,0.8-0.2
			c0.2-0.1,0.3-0.4,0.3-0.7c0-0.5-0.2-0.9-0.5-1.3c-0.3-0.4-0.7-0.6-1.2-0.6c-0.4,0-0.9,0.2-1.3,0.6C15,9.5,14.8,10.1,14.6,11.1z"/>
		<path class="st0" d="M20.9,12.1c0-1.1,0.3-2,1-2.9s1.6-1.2,2.6-1.2c0.6,0,1.3,0.2,1.9,0.5c0.6,0.3,0.9,0.7,0.9,1.2
			c0,0.2-0.1,0.3-0.2,0.5c-0.1,0.1-0.2,0.2-0.4,0.2c-0.3,0-0.6-0.3-0.8-0.8c-0.3-0.8-0.8-1.2-1.4-1.2c-0.7,0-1.2,0.3-1.6,0.9
			c-0.4,0.6-0.5,1.4-0.5,2.3c0,1.1,0.2,2,0.7,2.7c0.5,0.7,1.1,1.1,1.8,1.1c0.5,0,0.9-0.2,1.3-0.5c0.4-0.4,0.7-0.8,0.7-1.3
			c0-0.2,0.1-0.3,0.2-0.3c0.1,0,0.2,0.1,0.2,0.2c0,0.6-0.3,1.1-0.8,1.6c-0.5,0.5-1.3,0.8-2.2,0.8c-1,0-1.8-0.4-2.5-1.1
			C21.3,14,20.9,13.1,20.9,12.1z"/>
		<path class="st0" d="M30.1,11.6c0,0.3,0,0.5,0,0.7c0,0.8,0.2,1.6,0.7,2.1c0.5,0.6,1.1,0.9,1.8,0.9c0.7,0,1.4-0.3,2-0.9
			c0.2-0.2,0.3-0.2,0.3-0.2c0.1,0,0.1,0.1,0.2,0.2c-0.2,0.4-0.6,0.8-1.2,1.1c-0.5,0.3-1.2,0.4-1.8,0.4c-1,0-1.8-0.4-2.5-1.1
			c-0.7-0.7-1-1.6-1-2.7c0-1.2,0.4-2.1,1.1-2.9c0.8-0.8,1.6-1.2,2.4-1.2c0.8,0,1.5,0.3,2.2,0.9c0.6,0.6,1,1.3,1,2.1
			c0,0.1,0,0.2-0.1,0.3c0,0.1-0.3,0.1-0.7,0.1L30.1,11.6z M30.1,11.1c0.8,0,1.5,0.1,2.3,0.1l0.5,0c0.4,0,0.6-0.1,0.8-0.2
			c0.2-0.1,0.3-0.4,0.3-0.7c0-0.5-0.2-0.9-0.5-1.3c-0.3-0.4-0.7-0.6-1.2-0.6c-0.4,0-0.9,0.2-1.3,0.6C30.5,9.5,30.2,10.1,30.1,11.1z"
			/>
		<path class="st0" d="M38.9,8.1l0,2l0,1.9v1.4l0,1.1c0,0.4,0.1,0.7,0.2,0.8c0.1,0.1,0.3,0.2,0.6,0.2c0.3,0,0.5,0.1,0.5,0.2
			c0,0.1-0.1,0.1-0.2,0.1c0,0-0.1,0-0.2,0c-0.6-0.1-1.1-0.1-1.5-0.1c-0.8,0-1.3,0-1.6,0.1c-0.1,0-0.1,0-0.2,0
			c-0.1,0-0.2-0.1-0.2-0.2c0-0.1,0.2-0.2,0.5-0.2s0.5-0.1,0.6-0.2s0.1-0.4,0.1-0.9l0.1-3.7c0-1-0.1-1.6-0.2-1.8S37,8.6,36.6,8.5
			c-0.1,0-0.2,0-0.2-0.1c0-0.1,0-0.1,0.1-0.1c0,0,0.4-0.1,1.1-0.1C38.2,8.1,38.7,8.1,38.9,8.1z M37.9,3.7c0.2,0,0.4,0.1,0.6,0.3
			c0.2,0.2,0.3,0.3,0.3,0.5c0,0.2-0.1,0.4-0.2,0.6S38.2,5.3,38,5.3c-0.2,0-0.4-0.1-0.6-0.2c-0.2-0.1-0.3-0.3-0.3-0.6
			c0-0.2,0.1-0.4,0.2-0.6C37.5,3.8,37.7,3.7,37.9,3.7z"/>
		<path class="st0" d="M44,8.9c-0.1,1.3-0.1,2.6-0.1,3.9c0,1,0.1,1.6,0.3,1.9c0.2,0.3,0.6,0.4,1,0.4c0.3,0,0.7-0.1,1-0.3
			c0.1-0.1,0.2-0.1,0.3-0.1c0.1,0,0.1,0,0.1,0.1c0,0.1-0.2,0.4-0.6,0.7c-0.4,0.3-0.9,0.5-1.6,0.5c-0.6,0-1.1-0.2-1.4-0.6
			s-0.5-1.1-0.5-1.9c0-0.9,0.1-2.4,0.2-4.5c0,0-0.3,0-0.8-0.1l-0.5,0c-0.1,0-0.2-0.1-0.2-0.1c0-0.1,0.1-0.1,0.2-0.2
			c0.2-0.1,0.7-0.4,1.2-0.8c0.6-0.4,0.9-1,1-1.8c0-0.2,0.1-0.3,0.2-0.3c0.1,0,0.2,0.1,0.2,0.2c0,0.1,0,0.1,0,0.2c0,0.2,0,0.5,0,0.8
			l0,1.4l2,0c0.3,0,0.5,0,0.5,0.1c0,0.3-0.1,0.4-0.1,0.5C46,8.8,45.2,8.8,44,8.9z"/>
		<path class="st0" d="M52,14.6c-0.3,0.4-0.6,0.7-1,1s-0.9,0.3-1.4,0.3c-0.6,0-1.1-0.2-1.4-0.5s-0.5-0.7-0.5-1.3
			c0-0.4,0.1-0.8,0.3-1.1c0.2-0.3,0.4-0.6,0.7-0.7c0.3-0.1,0.7-0.3,1.4-0.6c1-0.3,1.5-0.6,1.7-0.8c0.2-0.2,0.3-0.5,0.3-0.8
			c0-0.5-0.1-0.9-0.4-1.2c-0.3-0.3-0.6-0.4-1.1-0.4c-0.4,0-0.7,0.1-0.8,0.3c-0.2,0.2-0.3,0.5-0.4,1c-0.1,0.6-0.3,0.8-0.7,0.8
			c-0.1,0-0.3-0.1-0.4-0.2S48,10,48,9.8c0-0.4,0.2-0.8,0.7-1.2c0.5-0.3,1.2-0.5,2-0.5c0.7,0,1.2,0.1,1.6,0.3
			c0.4,0.2,0.7,0.4,0.8,0.7c0.1,0.3,0.2,0.7,0.2,1.4l-0.1,2.4c0,0.9,0.1,1.6,0.2,1.9c0.1,0.4,0.3,0.6,0.6,0.6c0.1,0,0.1,0,0.3,0
			l0.2,0c0.1,0,0.2,0,0.2,0.1c0,0.2-0.6,0.3-1.8,0.3c-0.3,0-0.6-0.1-0.7-0.2C52.1,15.4,52,15.1,52,14.6z M52,11.1
			c-0.2,0.2-0.6,0.5-1.2,0.8c-0.6,0.3-1.1,0.6-1.3,0.9c-0.3,0.3-0.4,0.7-0.4,1.1c0,0.4,0.1,0.7,0.3,1c0.2,0.3,0.5,0.4,0.8,0.4
			c0.3,0,0.7-0.1,1-0.3s0.5-0.5,0.7-0.8s0.2-0.8,0.2-1.5C52.1,12.2,52.1,11.7,52,11.1z"/>
		<path class="st0" d="M61.2,13.4c0,0.7-0.3,1.3-0.8,1.8c-0.5,0.5-1.1,0.7-1.8,0.7c-0.4,0-0.9-0.1-1.5-0.4c-0.3-0.1-0.5-0.2-0.6-0.2
			c-0.1,0-0.2,0.1-0.3,0.2c-0.1,0.2-0.2,0.3-0.3,0.3c-0.1,0-0.1-0.1-0.1-0.3c0-0.2,0-0.6,0-1.2c0-0.5,0-0.9,0-1
			c0-0.2,0.1-0.3,0.2-0.3c0.1,0,0.1,0.1,0.2,0.2c0.2,0.7,0.6,1.3,1,1.7s0.9,0.7,1.5,0.7c0.4,0,0.8-0.1,1.1-0.4
			c0.3-0.2,0.5-0.6,0.5-1c0-0.7-0.6-1.2-1.7-1.7c-0.8-0.3-1.3-0.6-1.6-0.8c-0.3-0.2-0.5-0.4-0.6-0.7c-0.1-0.3-0.2-0.6-0.2-0.9
			c0-0.6,0.2-1.1,0.7-1.5s1-0.6,1.7-0.6c0.5,0,1,0.2,1.6,0.5c0.1,0,0.2,0.1,0.3,0.1c0.1,0,0.1,0,0.2-0.1c0.1-0.1,0.1-0.1,0.2-0.1
			c0.1,0,0.1,0,0.1,0.1c0,0,0.1,0.3,0.1,0.8c0,0.5,0.1,0.9,0.1,1.2c0,0.2-0.1,0.3-0.2,0.3c-0.1,0-0.2-0.1-0.2-0.3
			c0-0.2-0.2-0.5-0.4-0.9c-0.2-0.5-0.5-0.7-0.8-0.9s-0.6-0.2-0.8-0.2c-0.4,0-0.8,0.1-1.1,0.3C57.2,8.9,57,9.1,57,9.5
			c0,0.2,0.1,0.4,0.2,0.6c0.1,0.2,0.2,0.3,0.3,0.4c0.1,0.1,0.7,0.4,1.7,0.8c0.6,0.3,1.1,0.5,1.3,0.7c0.2,0.2,0.4,0.4,0.5,0.6
			C61.1,12.8,61.2,13.1,61.2,13.4z"/>
		<path class="st0" d="M74.3,3.5c0,1.3,0,3,0,5.2l-0.1,5.7c0,0.6,0.3,1,0.9,1.1c0.2,0,0.3,0.1,0.3,0.2c0,0.1,0,0.1-0.1,0.1
			s-0.5,0-1.2,0c-0.4,0-0.7,0-1.1,0c0-0.4,0-0.6,0-0.8c0-0.2,0-0.5,0-0.9c-0.3,0.6-0.7,1-1.1,1.3c-0.4,0.3-0.9,0.4-1.4,0.4
			c-0.7,0-1.4-0.3-2.2-1s-1.1-1.6-1.1-2.7c0-1.1,0.3-2.1,1-2.9c0.7-0.8,1.5-1.2,2.5-1.2c0.5,0,0.9,0.1,1.3,0.3
			c0.4,0.2,0.7,0.5,0.9,1c0-0.7,0.1-1.4,0.1-2c0-1.9,0-2.9-0.1-3.2c-0.1-0.2-0.3-0.3-0.7-0.4c-0.2,0-0.3-0.1-0.3-0.2
			c0-0.1,0.1-0.2,0.4-0.2L74.3,3.5z M73.1,11.5c0-1-0.2-1.8-0.5-2.3c-0.3-0.5-0.9-0.8-1.6-0.8c-0.7,0-1.3,0.3-1.6,0.9
			s-0.5,1.5-0.5,2.6c0,1.2,0.2,2,0.6,2.5s0.9,0.8,1.4,0.8c0.5,0,1-0.3,1.5-0.8C72.8,14,73.1,13,73.1,11.5z"/>
		<path class="st0" d="M81.2,14.6c-0.3,0.4-0.6,0.7-1,1s-0.9,0.3-1.4,0.3c-0.6,0-1.1-0.2-1.4-0.5c-0.3-0.3-0.5-0.7-0.5-1.3
			c0-0.4,0.1-0.8,0.3-1.1c0.2-0.3,0.4-0.6,0.7-0.7s0.7-0.3,1.4-0.6c1-0.3,1.5-0.6,1.7-0.8c0.2-0.2,0.3-0.5,0.3-0.8
			c0-0.5-0.1-0.9-0.4-1.2c-0.3-0.3-0.6-0.4-1.1-0.4c-0.4,0-0.7,0.1-0.8,0.3c-0.2,0.2-0.3,0.5-0.4,1c-0.1,0.6-0.3,0.8-0.7,0.8
			c-0.1,0-0.3-0.1-0.4-0.2s-0.2-0.3-0.2-0.6c0-0.4,0.2-0.8,0.7-1.2s1.2-0.5,2-0.5c0.7,0,1.2,0.1,1.6,0.3c0.4,0.2,0.7,0.4,0.8,0.7
			c0.1,0.3,0.2,0.7,0.2,1.4l-0.1,2.4c0,0.9,0.1,1.6,0.2,1.9c0.1,0.4,0.3,0.6,0.6,0.6c0.1,0,0.1,0,0.3,0l0.2,0c0.1,0,0.2,0,0.2,0.1
			c0,0.2-0.6,0.3-1.8,0.3c-0.3,0-0.6-0.1-0.7-0.2C81.3,15.4,81.2,15.1,81.2,14.6z M81.2,11.1C81,11.4,80.6,11.6,80,12
			c-0.6,0.3-1.1,0.6-1.3,0.9c-0.3,0.3-0.4,0.7-0.4,1.1c0,0.4,0.1,0.7,0.3,1c0.2,0.3,0.5,0.4,0.8,0.4c0.3,0,0.7-0.1,1-0.3
			c0.3-0.2,0.5-0.5,0.7-0.8c0.1-0.3,0.2-0.8,0.2-1.5C81.3,12.2,81.2,11.7,81.2,11.1z"/>
	</g>
	<g>
		<path class="st0" d="M11.6,29.2c-0.2,2.4-0.2,4.8-0.2,7.1c0,1.8,0.2,3,0.6,3.5c0.4,0.5,1,0.8,1.8,0.8c0.6,0,1.2-0.2,1.9-0.6
			c0.3-0.2,0.4-0.2,0.5-0.2c0.1,0,0.2,0.1,0.2,0.2c0,0.3-0.4,0.7-1.2,1.2c-0.8,0.6-1.7,0.9-2.9,0.9c-1.1,0-2-0.4-2.5-1.2
			C9.3,40.2,9,39,9,37.5c0-1.6,0.1-4.4,0.3-8.3c-0.1,0-0.6-0.1-1.6-0.1l-1-0.1c-0.2,0-0.4-0.1-0.4-0.2c0-0.1,0.1-0.3,0.4-0.3
			C7.3,28.3,8,27.8,9.1,27c1.1-0.8,1.7-1.9,1.8-3.4c0-0.4,0.2-0.6,0.4-0.6c0.2,0,0.3,0.2,0.3,0.5c0,0.1,0,0.2,0,0.3
			c0,0.4,0,0.9,0,1.5l0,2.5l3.6,0c0.6,0,0.9,0.1,0.9,0.2c0,0.5-0.1,0.8-0.2,0.9C15.3,29,13.8,29,11.6,29.2z"/>
		<path class="st0" d="M22.5,27.7l0,3.7l0,3.4v2.6l0,2c0,0.8,0.1,1.3,0.4,1.5c0.3,0.2,0.6,0.3,1.2,0.4c0.6,0,0.9,0.2,0.9,0.4
			c0,0.2-0.1,0.3-0.3,0.3c-0.1,0-0.2,0-0.3,0c-1-0.1-2-0.2-2.8-0.2c-1.4,0-2.4,0-2.9,0.1c-0.1,0-0.2,0-0.3,0c-0.3,0-0.4-0.1-0.4-0.3
			s0.3-0.3,0.9-0.4c0.6-0.1,1-0.2,1.2-0.4c0.2-0.2,0.3-0.7,0.3-1.6l0.1-6.8c0-1.8-0.1-2.9-0.4-3.2c-0.3-0.3-0.8-0.5-1.6-0.5
			c-0.3,0-0.4-0.1-0.4-0.3c0-0.1,0-0.2,0.1-0.2c0.1-0.1,0.7-0.1,1.9-0.2C21.2,27.8,22.1,27.7,22.5,27.7z M20.7,19.7
			c0.4,0,0.8,0.2,1.1,0.5c0.3,0.3,0.5,0.6,0.5,1c0,0.4-0.1,0.8-0.4,1.1c-0.3,0.3-0.6,0.5-1.1,0.5c-0.4,0-0.8-0.1-1.1-0.4
			c-0.3-0.3-0.5-0.6-0.5-1.1c0-0.4,0.1-0.8,0.4-1.1C19.9,19.8,20.3,19.7,20.7,19.7z"/>
		<path class="st0" d="M35.1,39.7c-0.5,0.8-1.2,1.4-1.9,1.7c-0.7,0.4-1.6,0.6-2.5,0.6c-1.1,0-2-0.3-2.6-0.9
			c-0.6-0.6-0.9-1.4-0.9-2.3c0-0.7,0.2-1.4,0.6-2c0.4-0.6,0.8-1.1,1.3-1.3c0.5-0.3,1.3-0.6,2.6-1c1.7-0.6,2.8-1.1,3.1-1.4
			c0.3-0.4,0.5-0.9,0.5-1.5c0-1-0.2-1.7-0.7-2.3c-0.5-0.5-1.1-0.8-1.9-0.8c-0.7,0-1.2,0.2-1.6,0.5c-0.3,0.3-0.6,0.9-0.8,1.9
			c-0.2,1-0.6,1.5-1.3,1.5c-0.2,0-0.5-0.1-0.8-0.4c-0.3-0.2-0.4-0.6-0.4-1.1c0-0.8,0.5-1.5,1.4-2.1c0.9-0.6,2.2-0.9,3.7-0.9
			c1.3,0,2.3,0.2,3,0.5c0.7,0.4,1.2,0.8,1.4,1.2c0.2,0.5,0.3,1.3,0.3,2.7l-0.1,4.3c0,1.7,0.1,2.9,0.3,3.6c0.2,0.7,0.6,1.1,1.1,1.1
			c0.1,0,0.3,0,0.5,0l0.3,0c0.3,0,0.4,0.1,0.4,0.3c0,0.4-1.1,0.6-3.2,0.6c-0.6,0-1-0.1-1.3-0.4C35.2,41.2,35.1,40.6,35.1,39.7z
			 M35.1,33.3c-0.3,0.4-1.1,0.9-2.2,1.6c-1.1,0.6-2,1.2-2.5,1.7c-0.5,0.5-0.8,1.2-0.8,2c0,0.7,0.2,1.3,0.6,1.8
			c0.4,0.5,0.9,0.7,1.5,0.7c0.6,0,1.2-0.2,1.8-0.6c0.6-0.4,1-0.9,1.2-1.5c0.3-0.6,0.4-1.5,0.4-2.7C35.2,35.3,35.2,34.4,35.1,33.3z"
			/>
		<path class="st0" d="M54.7,27.7c-0.1,4.7-0.1,7.4-0.1,8.2c0,4.6-0.1,7.6-0.2,9.1c-0.1,1.5-0.7,2.8-1.7,3.9c-1,1.1-2.2,1.6-3.6,1.6
			c-0.8,0-1.5-0.2-2.1-0.7c-0.6-0.4-0.9-1.1-0.9-1.9c0-0.5,0.1-0.9,0.4-1.2c0.3-0.3,0.6-0.4,0.9-0.4c0.3,0,0.6,0.1,0.9,0.3
			c0.2,0.2,0.4,0.5,0.4,0.9c0,0.2-0.1,0.5-0.2,0.8c-0.1,0.2-0.1,0.4-0.1,0.6c0,0.3,0.1,0.5,0.3,0.6c0.2,0.1,0.5,0.2,0.9,0.2
			c0.7,0,1.2-0.2,1.8-0.7c0.5-0.5,0.8-1,1-1.7c0.1-0.7,0.2-2.6,0.2-5.8l0-10.1c0-1.3-0.1-2.2-0.3-2.5c-0.2-0.4-0.6-0.5-1.3-0.5
			c-0.1,0-0.2,0-0.4,0c-0.5,0-0.7-0.1-0.7-0.3c0-0.2,0.3-0.3,0.9-0.3C52.2,27.8,53.5,27.8,54.7,27.7z M53.2,18.9
			c0.3,0,0.7,0.1,1,0.4c0.3,0.3,0.4,0.6,0.4,1c0,0.4-0.1,0.7-0.4,1c-0.3,0.3-0.6,0.4-1,0.4c-0.3,0-0.7-0.1-0.9-0.4
			c-0.3-0.3-0.4-0.6-0.4-1c0-0.4,0.1-0.7,0.4-1C52.4,19.1,52.7,18.9,53.2,18.9z"/>
		<path class="st0" d="M62.8,28c0.1,0.7,0.1,2.8,0.1,6.2c0,2.1,0.1,3.5,0.2,4.2c0.1,0.7,0.4,1.3,0.8,1.7c0.5,0.5,1,0.7,1.6,0.7
			c0.8,0,1.6-0.4,2.4-1.1c0.8-0.7,1.3-1.5,1.5-2.4c0.2-0.8,0.3-2.8,0.3-5.8c0-1.4-0.1-2.2-0.3-2.5c-0.2-0.3-0.6-0.5-1.3-0.5
			c-0.3,0-0.4-0.1-0.4-0.3c0-0.1,0-0.2,0.1-0.2c0.1,0,0.3-0.1,0.7-0.1h3.3c0.1,1.2,0.1,2.5,0.1,4l-0.1,6.2c0,1.3,0.1,2.1,0.3,2.4
			c0.2,0.3,0.5,0.5,1,0.6c0.3,0,0.4,0.2,0.4,0.3c0,0.2-0.3,0.3-0.8,0.3h-2.6c-0.4,0-0.7-0.1-0.7-0.4c0-0.1,0-0.2,0-0.3
			c0-0.3,0-0.7,0-1c0-0.3,0-0.7,0-1.2c-0.8,1.1-1.7,1.9-2.6,2.4C66,41.7,65.1,42,64.1,42c-0.8,0-1.5-0.2-2.1-0.6
			c-0.6-0.4-0.9-0.9-1.1-1.5s-0.3-2-0.4-4.3c-0.1-2.3-0.1-4.1-0.1-5.4c0-0.7,0-1.2-0.1-1.3c-0.1-0.2-0.3-0.3-0.7-0.3
			c-0.4,0-0.7-0.1-0.7-0.3c0-0.2,0.3-0.3,0.8-0.3H62.8z"/>
		<path class="st0" d="M80.6,31.4c0.7-1.2,1.4-2.1,2.2-2.8c0.8-0.6,1.6-0.9,2.5-0.9c0.6,0,1.1,0.2,1.6,0.6c0.4,0.4,0.7,0.9,0.7,1.5
			c0,1-0.4,1.6-1.3,1.6c-0.4,0-0.8-0.3-1-0.9c-0.3-0.7-0.8-1.1-1.4-1.1c-0.5,0-1.1,0.3-1.7,0.9c-0.6,0.6-1,1.3-1.2,2
			c-0.2,0.7-0.3,2.2-0.3,4.6c0,2.1,0.1,3.3,0.3,3.6c0.2,0.3,0.6,0.5,1.3,0.6c0.2,0,0.3,0.1,0.3,0.2c0,0.2-0.3,0.3-0.8,0.3h-5.2
			c-0.4,0-0.6-0.1-0.6-0.3c0-0.2,0.2-0.3,0.7-0.3c0.7,0,1.1-0.3,1.3-0.6s0.2-1.8,0.2-4.2c0-3.6-0.1-5.7-0.2-6.4
			c-0.1-0.7-0.7-1.1-1.6-1.1c-0.4,0-0.6-0.1-0.6-0.3c0-0.1,0-0.2,0.1-0.2c0.1,0,0.6-0.1,1.5-0.2l3-0.2
			C80.4,28.5,80.5,29.6,80.6,31.4z"/>
		<path class="st0" d="M91.9,34.1c0,0.6-0.1,1-0.1,1.3c0,1.6,0.5,2.9,1.4,3.9c0.9,1.1,2,1.6,3.4,1.6c1.3,0,2.5-0.5,3.7-1.6
			c0.3-0.3,0.5-0.4,0.6-0.4c0.2,0,0.3,0.1,0.3,0.4c-0.4,0.8-1.1,1.4-2.1,1.9c-1,0.5-2.1,0.8-3.4,0.8c-1.8,0-3.3-0.7-4.6-2
			c-1.3-1.3-1.9-3-1.9-5c0-2.1,0.7-3.9,2.1-5.4c1.4-1.4,2.9-2.1,4.4-2.1c1.5,0,2.8,0.6,4,1.7c1.2,1.1,1.8,2.4,1.8,3.9
			c0,0.2,0,0.4-0.1,0.5c-0.1,0.1-0.5,0.2-1.3,0.2L91.9,34.1z M91.9,33.3c1.4,0.1,2.8,0.1,4.1,0.1l0.9,0c0.7,0,1.2-0.1,1.5-0.4
			c0.3-0.2,0.5-0.6,0.5-1.2c0-0.9-0.3-1.7-0.9-2.4c-0.6-0.7-1.4-1-2.2-1c-0.8,0-1.6,0.4-2.4,1.2C92.7,30.2,92.2,31.5,91.9,33.3z"/>
		<path class="st0" d="M108,27.7c0.1,0.4,0.2,0.8,0.2,1.2c0,0.5,0,1,0,1.6c0.8-0.9,1.6-1.6,2.5-2c0.8-0.4,1.7-0.7,2.5-0.7
			c0.8,0,1.5,0.2,2.2,0.6c0.7,0.4,1.3,0.9,1.8,1.7c0.8-0.8,1.6-1.3,2.3-1.7c0.8-0.4,1.6-0.6,2.4-0.6c1.1,0,1.9,0.2,2.6,0.7
			c0.7,0.4,1.1,0.9,1.3,1.5c0.2,0.5,0.3,1.5,0.3,2.9l-0.1,6.2c0,0.9,0.1,1.5,0.3,1.8c0.2,0.3,0.5,0.5,1.1,0.5c0.4,0,0.6,0.1,0.6,0.3
			c0,0.2-0.3,0.3-0.9,0.3h-5c-0.5,0-0.7-0.1-0.7-0.3c0-0.2,0.1-0.3,0.4-0.3c0.9,0,1.5-0.2,1.7-0.6c0.2-0.4,0.3-2.3,0.3-5.9
			c0-1.7-0.1-2.9-0.2-3.6c-0.1-0.7-0.4-1.3-0.9-1.8c-0.5-0.5-1-0.7-1.7-0.7c-0.6,0-1.2,0.2-1.8,0.5c-0.6,0.4-1.1,0.9-1.7,1.7
			c-0.4,1.4-0.7,4-0.7,7.6c0,1.3,0.1,2.1,0.3,2.4c0.2,0.3,0.6,0.5,1.3,0.5h0.3c0.3,0,0.5,0.1,0.5,0.3c0,0.2-0.2,0.3-0.7,0.3h-5.5
			c-0.6,0-0.8-0.1-0.8-0.3c0-0.2,0.2-0.3,0.5-0.3c0.7,0,1.1-0.1,1.4-0.4c0.2-0.3,0.4-1.1,0.5-2.4c0.1-1.3,0.1-2.6,0.1-3.9
			c0-2.3-0.2-3.9-0.7-4.6c-0.5-0.7-1.1-1.1-2-1.1c-0.7,0-1.5,0.3-2.2,0.9c-0.7,0.6-1.2,1.4-1.5,2.4c-0.3,1-0.4,2.8-0.4,5.3
			c0,1.8,0.1,2.9,0.3,3.3c0.2,0.4,0.6,0.6,1.3,0.6c0.3,0,0.4,0,0.5,0c0.1,0,0.1,0.1,0.1,0.3c0,0.2-0.2,0.3-0.6,0.3h-5.1
			c-0.6,0-0.9-0.1-0.9-0.3c0-0.2,0.1-0.3,0.3-0.3c0.6,0,1-0.1,1.2-0.3c0.2-0.2,0.4-0.8,0.5-1.8c0.1-1,0.1-2.6,0.1-4.8
			c0-2.2,0-3.6,0-4.1c0-0.5-0.2-0.8-0.5-1.1c-0.3-0.3-0.8-0.4-1.5-0.4c-0.3,0-0.4-0.1-0.4-0.3c0-0.1,0-0.2,0.1-0.2
			c0.1,0,0.6-0.1,1.5-0.2c0.9-0.1,1.7-0.1,2.4-0.1C107.4,27.7,107.7,27.7,108,27.7z"/>
		<path class="st0" d="M138.2,39.7c-0.5,0.8-1.2,1.4-1.9,1.7s-1.6,0.6-2.5,0.6c-1.1,0-2-0.3-2.6-0.9c-0.6-0.6-0.9-1.4-0.9-2.3
			c0-0.7,0.2-1.4,0.6-2c0.4-0.6,0.8-1.1,1.3-1.3c0.5-0.3,1.3-0.6,2.6-1c1.7-0.6,2.8-1.1,3.1-1.4c0.3-0.4,0.5-0.9,0.5-1.5
			c0-1-0.2-1.7-0.7-2.3c-0.5-0.5-1.1-0.8-1.9-0.8c-0.7,0-1.2,0.2-1.6,0.5c-0.3,0.3-0.6,0.9-0.8,1.9c-0.2,1-0.6,1.5-1.3,1.5
			c-0.2,0-0.5-0.1-0.8-0.4c-0.3-0.2-0.4-0.6-0.4-1.1c0-0.8,0.5-1.5,1.4-2.1s2.2-0.9,3.7-0.9c1.3,0,2.3,0.2,3,0.5
			c0.7,0.4,1.2,0.8,1.4,1.2c0.2,0.5,0.3,1.3,0.3,2.7l-0.1,4.3c0,1.7,0.1,2.9,0.3,3.6c0.2,0.7,0.6,1.1,1.1,1.1c0.1,0,0.3,0,0.5,0
			l0.3,0c0.3,0,0.4,0.1,0.4,0.3c0,0.4-1.1,0.6-3.2,0.6c-0.6,0-1-0.1-1.3-0.4C138.3,41.2,138.2,40.6,138.2,39.7z M138.2,33.3
			c-0.3,0.4-1.1,0.9-2.2,1.6c-1.1,0.6-2,1.2-2.5,1.7c-0.5,0.5-0.8,1.2-0.8,2c0,0.7,0.2,1.3,0.6,1.8c0.4,0.5,0.9,0.7,1.5,0.7
			c0.6,0,1.2-0.2,1.8-0.6c0.6-0.4,1-0.9,1.2-1.5c0.3-0.6,0.4-1.5,0.4-2.7C138.3,35.3,138.2,34.4,138.2,33.3z"/>
	</g>
</g>
</svg>
